<svg xmlns="http://www.w3.org/2000/svg" width="29.8" height="29.8" viewBox="0 0 29.8 29.8">
  <g id="Groupe_997" data-name="Groupe 997" transform="translate(610.684 -553.973)">
    <path id="Tracé_671" data-name="Tracé 671" d="M-585.309,567.71h-2.226a1.353,1.353,0,0,0-1.353,1.353v2.227h4.933v-2.227A1.353,1.353,0,0,0-585.309,567.71Z" transform="translate(-9.299 -6.076)" fill="#fff"/>
    <g id="Groupe_995" data-name="Groupe 995" transform="translate(-610.684 553.973)">
      <path id="Tracé_672" data-name="Tracé 672" d="M-595.784,553.973a14.9,14.9,0,0,0-14.9,14.9,14.9,14.9,0,0,0,14.9,14.9,14.9,14.9,0,0,0,14.9-14.9A14.9,14.9,0,0,0-595.784,553.973Zm7.792,23.03a1.921,1.921,0,0,1-1.921,1.921h-11.742A1.921,1.921,0,0,1-603.576,577V568.2a1.92,1.92,0,0,1,1.694-1.906V563.3a4.481,4.481,0,0,1,4.481-4.481h3.233a4.481,4.481,0,0,1,4.482,4.481v2.987a1.919,1.919,0,0,1,1.694,1.906Z" transform="translate(610.684 -553.973)" fill="#fff"/>
      <path id="Tracé_673" data-name="Tracé 673" d="M-583.66,586.736a1.6,1.6,0,0,0,.676-1.307,1.6,1.6,0,0,0-1.605-1.6,1.6,1.6,0,0,0-1.6,1.6,1.6,1.6,0,0,0,.777,1.373l-.275.476-1.173,2.031h4.691l-1.173-2.031Z" transform="translate(599.579 -567.641)" fill="#fff"/>
    </g>
  </g>
</svg>
