<svg xmlns="http://www.w3.org/2000/svg" width="32.223" height="45.641" viewBox="0 0 32.223 45.641">
  <path id="Tracé_903" data-name="Tracé 903" d="M20.611,47.141l-.8-.883C19.189,45.566,4.5,29.171,4.5,17.611a16.111,16.111,0,1,1,32.223,0c0,11.559-14.689,27.954-15.314,28.646Zm0-43.492A13.979,13.979,0,0,0,6.648,17.611c0,9.274,10.889,22.691,13.963,26.29,3.072-3.6,13.963-17.022,13.963-26.29A13.979,13.979,0,0,0,20.611,3.648Zm0,20.408a6.445,6.445,0,1,1,6.445-6.445A6.452,6.452,0,0,1,20.611,24.056Zm0-10.741a4.3,4.3,0,1,0,4.3,4.3A4.3,4.3,0,0,0,20.611,13.315Z" transform="translate(-4.5 -1.5)" fill="#f04a4a"/>
</svg>
