<svg id="HEADER_LOGO" data-name="HEADER / LOGO" xmlns="http://www.w3.org/2000/svg" width="121.476" height="36.715" viewBox="0 0 121.476 36.715">
  <g id="Groupe_3" data-name="Groupe 3" transform="translate(0 0.22)">
    <g id="Groupe_2" data-name="Groupe 2">
      <g id="Groupe_1" data-name="Groupe 1">
        <path id="Tracé_1" data-name="Tracé 1" d="M242.506,45.172a.313.313,0,0,0-.312-.312.305.305,0,0,0-.145.042c-.762.3-5,2.123-6.065,5.719-.353,1.193-5.474,19.759-5.474,19.813a.313.313,0,0,0,.309.312c.016,0,.028-.009.042-.009v0l.032-.007a.508.508,0,0,0,.078-.03c.736-.293,5-2.112,6.067-5.721.351-1.191,4.669-16.979,5.37-19.4l.065-.231a1.493,1.493,0,0,1,.032-.173Z" transform="translate(-177.313 -34.728)" fill="#d50c0c"/>
        <path id="Tracé_2" data-name="Tracé 2" d="M389.316,45.172A.315.315,0,0,0,389,44.86a.341.341,0,0,0-.152.042c-.759.3-4.994,2.123-6.06,5.719-.351,1.193-5.53,19.759-5.53,19.813a.313.313,0,0,0,.312.312c.014,0,.025-.009.044-.009v0s.023,0,.03-.007a.744.744,0,0,0,.076-.03c.736-.293,5-2.112,6.067-5.721.353-1.191,4.724-16.979,5.423-19.4l.067-.231s0-.023,0-.048A.279.279,0,0,0,389.316,45.172Z" transform="translate(-290.196 -34.728)" fill="#d50c0c"/>
        <path id="Tracé_3" data-name="Tracé 3" d="M302.563,14.137c-1.295-1.867-3.653-2.82-7.42-3.009-.143-.007-.286-.012-.429-.016a2.933,2.933,0,0,0-.448.039h-.037a13.521,13.521,0,0,0-5.652,1.65c.221-.683,3.725-11.267,3.725-11.267a.3.3,0,0,0,.046-.152.314.314,0,0,0-.314-.312.327.327,0,0,0-.134.032c-.261.1-4.842,1.851-6.12,5.742-.925,2.788-4.613,15.527-4.653,15.661a.394.394,0,0,0-.018.118.356.356,0,0,0,.048.138c-.021.051-.058.157-.058.157l-.162.5a31.566,31.566,0,0,0-1.069,6.559,6.171,6.171,0,0,0,1.251,3.873c1.329,1.922,3.718,2.989,7.092,3.178a.8.8,0,0,1,.1.007h.083c.15.009.307.03.452.028,5.1-.108,10.427-2.149,13.667-12.305C304.081,19.828,304.1,16.357,302.563,14.137Zm-4.634,10.071c-1.246,4.26-4.14,11.313-10.122,11.4a3.8,3.8,0,0,1-2.536-1.419c-1.359-1.8-1.357-5.211.012-9.882,1.493-5.116,4.408-11.087,9.907-11.366a3.789,3.789,0,0,1,2.818,1.387C299.355,16.1,299.327,19.426,297.929,24.208Z" transform="translate(-215.282 -1.044)" fill="#d50c0c"/>
        <path id="Tracé_4" data-name="Tracé 4" d="M438.777,46.186c-.907-.722-2.9-1.165-5.619-1.246l-1.161,0h0c-4.085-.078-9.25.879-10.63,5.869-1.177,4.251,2.908,6.326,6.515,8.151,2.882,1.461,5.606,2.841,5.121,5.075-.792,3.635-3.272,5.317-8.045,5.453a4.028,4.028,0,0,1-3.09-1.161,2.964,2.964,0,0,1-.457-2.4V65.9a.309.309,0,0,0-.307-.312h-3.921a.309.309,0,0,0-.309.3l0,.009a3.737,3.737,0,0,0,1.422,3.261c1.262,1,3.346,1.553,6.192,1.641l1.207,0c4.569.088,10.385-1.062,12.125-7,1.177-4.032-2.857-6.208-6.416-8.123-3.219-1.738-6-3.233-4.99-5.707l.148-.381c.545-1.429,1.29-3.381,5.486-3.517a3.724,3.724,0,0,1,2.829,1.032,2.323,2.323,0,0,1,.473,1.772v0c0,.016,0,.028,0,.042a.309.309,0,0,0,.3.312s.007.007.007.007h3.884a.1.1,0,0,0,.016-.016.3.3,0,0,0,.261-.263s.016-.014.016-.018A2.936,2.936,0,0,0,438.777,46.186Z" transform="translate(-320.664 -34.783)" fill="#d50c0c"/>
        <path id="Tracé_5" data-name="Tracé 5" d="M76.623.982l-.018,0v0H68.151c-5.183,0-9.739,3.963-9.931,4.133L42.846,18.124c-.515-1.558-.665-2.026-1.29-3.919a4.526,4.526,0,0,0-4.523-2.966H34.446a.069.069,0,0,0-.028,0,.309.309,0,1,0,0,.618c1.883.284,2.423,2.675,2.43,2.693s.819,2.5,2.229,6.78L26.315,31.976A18.992,18.992,0,0,1,19.39,35.44c4.069-2.054,7.722-6.485,10.083-15.557C31.254,13.019,31.1,8.194,29,5.136,27.4,2.8,24.686,1.508,20.544,1.088v0c-.579-.053-1.4-.138-1.71-.127C9.971,1.3,4,6.927,1.1,18.12c-1.68,6.448-1.422,11.329.759,14.507,1.523,2.22,4,3.6,7.337,4.149l-.168,0a40.385,40.385,0,0,0,13.7.171c4.8-.411,8.848-3.932,9.024-4.094,0,0,2.213-1.662,8.747-7.223,1.41,4.295,2.779,8.456,2.779,8.456A4.561,4.561,0,0,0,47.8,37.051l2.876-.014c.012,0,.025,0,.042,0a.309.309,0,0,0,0-.618l-.016,0c-2.119-.268-2.7-2.612-2.719-2.686,0,0-.132-.39-3.72-11.313C55.733,12.655,63.653,6,63.653,6A22.034,22.034,0,0,1,76.621,1.6h.009A.431.431,0,0,1,76.7,1.6V1.587a.3.3,0,0,0,.228-.293A.311.311,0,0,0,76.623.982ZM6.556,33.088c-2.01-2.58-2.2-7.433-.538-14.034,2.638-10.5,7.157-15.965,13.427-16.3A6.057,6.057,0,0,1,24.051,4.94c1.987,2.552,2.135,7.274.434,14.036-1.491,5.931-5.188,15.769-13.335,16.3A5.986,5.986,0,0,1,6.556,33.088Z" transform="translate(-0.002 -0.955)" fill="#d50c0c"/>
      </g>
    </g>
    <path id="Tracé_6" data-name="Tracé 6" d="M505.606,135.248a2.256,2.256,0,0,1,2.2-2,1.684,1.684,0,0,1,1.7,2,2.254,2.254,0,0,1-2.19,2.01A1.69,1.69,0,0,1,505.606,135.248Zm1.662,2.409a2.788,2.788,0,0,0,2.723-2.412,2.079,2.079,0,0,0-2.137-2.4,2.792,2.792,0,0,0-2.735,2.4A2.089,2.089,0,0,0,507.268,137.657Zm-.235-2.218h.482l.584,1.2h.471l-.639-1.221a.839.839,0,0,0,.812-.764c.065-.547-.228-.787-.886-.787H506.8l-.337,2.772h.42Zm.044-.358.1-.859h.572c.293,0,.6.062.554.406-.051.425-.374.45-.729.45h-.5Z" transform="translate(-388.534 -102.411)" fill="#d50c0c"/>
  </g>
  <g id="Groupe_4" data-name="Groupe 4" transform="translate(80.572)">
    <path id="Tracé_7" data-name="Tracé 7" d="M350.632,0h5.04l-.265,1.249h-3.563L351.5,2.882h3.12l-.261,1.235h-3.12L350.6,7.1H349.13Z" transform="translate(-349.13)" fill="#d50c0c"/>
    <path id="Tracé_8" data-name="Tracé 8" d="M378.926,7.449l-.3,1.408c-.085-.009-.159-.016-.226-.018s-.122,0-.164,0a1.431,1.431,0,0,0-1.23.54,2.482,2.482,0,0,0-.355.935l-.531,2.513H374.74l1.112-5.255h1.311l-.192.916a4.087,4.087,0,0,1,.7-.72,1.823,1.823,0,0,1,1.075-.323.583.583,0,0,1,.067,0C378.829,7.445,378.869,7.447,378.926,7.449Z" transform="translate(-368.83 -5.723)" fill="#d50c0c"/>
    <path id="Tracé_9" data-name="Tracé 9" d="M393.79,9.623a2.481,2.481,0,0,0,.575-.12.552.552,0,0,0,.376-.39c.044-.215,0-.365-.132-.445a1.256,1.256,0,0,0-.632-.122,1.05,1.05,0,0,0-.743.24,1.362,1.362,0,0,0-.3.482h-1.325a2.556,2.556,0,0,1,.625-1.133,2.738,2.738,0,0,1,2.022-.695,2.893,2.893,0,0,1,1.461.344c.4.228.531.658.395,1.292l-.517,2.412c-.035.166-.074.369-.115.607a.738.738,0,0,0,0,.367.36.36,0,0,0,.166.159l-.039.2h-1.5a1.525,1.525,0,0,1-.025-.3,3.034,3.034,0,0,1,.03-.318,3.96,3.96,0,0,1-.766.526,2.3,2.3,0,0,1-1.062.256,1.424,1.424,0,0,1-1.092-.406,1.237,1.237,0,0,1-.219-1.156,1.963,1.963,0,0,1,1.045-1.4,3.9,3.9,0,0,1,1.279-.337Zm.7.642a1.6,1.6,0,0,1-.289.132,2.684,2.684,0,0,1-.385.095l-.318.058a2.346,2.346,0,0,0-.665.189.822.822,0,0,0-.441.584.524.524,0,0,0,.083.508.613.613,0,0,0,.441.157,1.643,1.643,0,0,0,.872-.261,1.423,1.423,0,0,0,.593-.949Z" transform="translate(-381.288 -5.723)" fill="#d50c0c"/>
    <path id="Tracé_10" data-name="Tracé 10" d="M420.794,9.289l-.752,3.54h-1.408l.674-3.2A1.359,1.359,0,0,0,419.333,9c-.078-.27-.3-.4-.685-.4a1.226,1.226,0,0,0-1.085.593,2.322,2.322,0,0,0-.3.8l-.6,2.846H415.29L416.4,7.586h1.325l-.164.766a3.289,3.289,0,0,1,.628-.584,2.054,2.054,0,0,1,1.142-.318,1.685,1.685,0,0,1,1.242.427A1.49,1.49,0,0,1,420.794,9.289Z" transform="translate(-400.022 -5.731)" fill="#d50c0c"/>
    <path id="Tracé_11" data-name="Tracé 11" d="M445.7,9.442a1.031,1.031,0,0,0-.088-.531.66.66,0,0,0-.651-.318,1.221,1.221,0,0,0-1.094.69,3.411,3.411,0,0,0-.344.974,2.621,2.621,0,0,0-.062.93.71.71,0,0,0,.787.655,1,1,0,0,0,.741-.261,1.63,1.63,0,0,0,.388-.676h1.4a2.918,2.918,0,0,1-.7,1.186,2.754,2.754,0,0,1-2.109.9,1.8,1.8,0,0,1-1.7-.752,2.7,2.7,0,0,1-.182-1.952,3.819,3.819,0,0,1,1.108-2.107,2.84,2.84,0,0,1,1.985-.752,2.323,2.323,0,0,1,1.523.443A1.69,1.69,0,0,1,447.1,9.44H445.7Z" transform="translate(-420.554 -5.715)" fill="#d50c0c"/>
    <path id="Tracé_12" data-name="Tracé 12" d="M470.33,8.385a2.239,2.239,0,0,1,.168,1.085,7.008,7.008,0,0,1-.173,1.041h-3.6a1.085,1.085,0,0,0,.261,1.11.987.987,0,0,0,.642.2,1.2,1.2,0,0,0,.743-.242,1.7,1.7,0,0,0,.332-.36h1.4a2.309,2.309,0,0,1-.69.949,2.94,2.94,0,0,1-2.054.766,2.169,2.169,0,0,1-1.632-.646,2.24,2.24,0,0,1-.321-2.1,3.672,3.672,0,0,1,1.135-2.093A2.9,2.9,0,0,1,468.5,7.36a2.4,2.4,0,0,1,1.131.247A1.533,1.533,0,0,1,470.33,8.385Zm-3.376,1.221h2.135a1.009,1.009,0,0,0-.157-.829.843.843,0,0,0-.679-.282,1.137,1.137,0,0,0-.8.3A1.941,1.941,0,0,0,466.953,9.606Z" transform="translate(-438.498 -5.661)" fill="#d50c0c"/>
  </g>
</svg>
